<svg xmlns="http://www.w3.org/2000/svg" xmlns:xlink="http://www.w3.org/1999/xlink" width="277.619" height="277.619" viewBox="0 0 277.619 277.619"><defs><style>.a,.c{fill:#00a460;}.a{stroke:#707070;}.b{clip-path:url(#a);}</style><clipPath id="a"><path class="a" d="M0,0H277.619V277.619H0Z"/></clipPath></defs><g class="b"><g transform="translate(0 14.096)"><path class="c" d="M104.116,2495.438a2.835,2.835,0,0,0-.62.176L4.28,2540.97a2.972,2.972,0,0,0-.974,4.431l32.423,37.915L3.305,2621.142a2.971,2.971,0,0,0,.974,4.429l32.334,14.794v56.291a2.9,2.9,0,0,0,1.683,2.569l101.963,45.356a2.876,2.876,0,0,0,2.3,0l102.14-45.356a2.9,2.9,0,0,0,1.683-2.569v-56.291l32.334-14.794a2.971,2.971,0,0,0,.974-4.429l-32.423-37.826,32.423-37.915a2.972,2.972,0,0,0-.974-4.429L179.5,2495.615a2.824,2.824,0,0,0-3.189.71L141.5,2533.8l-34.814-37.472A2.889,2.889,0,0,0,104.116,2495.438Zm-.088,6.2,32.688,35.257-96.559,42.964L10.038,2544.6Zm74.944,0,93.99,42.965-30.119,35.257L146.283,2536.9ZM141.5,2541.06l95.053,42.256L141.5,2625.482l-95.053-42.167ZM40.157,2586.682l96.559,42.964L104.028,2664.9l-93.99-42.964Zm202.685,0,30.119,35.257-93.99,42.964-32.688-35.257Zm-104.177,49.077v101.824l-96.382-42.875v-51.773l61.213,27.993a2.911,2.911,0,0,0,3.189-.708Zm5.669,0,31.98,34.46a2.911,2.911,0,0,0,3.189.709l61.213-27.993v51.773l-96.382,42.787Z" transform="translate(-2.69 -2495.396)"/></g></g><g class="b"><g transform="translate(0 14.096)"><path class="c" d="M104.116,2495.438a2.835,2.835,0,0,0-.62.176L4.28,2540.97a2.972,2.972,0,0,0-.974,4.431l32.423,37.915L3.305,2621.142a2.971,2.971,0,0,0,.974,4.429l32.334,14.794v56.291a2.9,2.9,0,0,0,1.683,2.569l101.963,45.356a2.876,2.876,0,0,0,2.3,0l102.14-45.356a2.9,2.9,0,0,0,1.683-2.569v-56.291l32.334-14.794a2.971,2.971,0,0,0,.974-4.429l-32.423-37.826,32.423-37.915a2.972,2.972,0,0,0-.974-4.429L179.5,2495.615a2.824,2.824,0,0,0-3.189.71L141.5,2533.8l-34.814-37.472A2.889,2.889,0,0,0,104.116,2495.438Zm-.088,6.2,32.688,35.257-96.559,42.964L10.038,2544.6Zm74.944,0,93.99,42.965-30.119,35.257L146.283,2536.9ZM141.5,2541.06l95.053,42.256L141.5,2625.482l-95.053-42.167ZM40.157,2586.682l96.559,42.964L104.028,2664.9l-93.99-42.964Zm202.685,0,30.119,35.257-93.99,42.964-32.688-35.257Zm-104.177,49.077v101.824l-96.382-42.875v-51.773l61.213,27.993a2.911,2.911,0,0,0,3.189-.708Zm5.669,0,31.98,34.46a2.911,2.911,0,0,0,3.189.709l61.213-27.993v51.773l-96.382,42.787Z" transform="translate(-2.69 -2495.396)"/></g></g></svg>