<svg xmlns="http://www.w3.org/2000/svg" width="237.171" height="274.192" viewBox="0 0 237.171 274.192"><defs><style>.a,.b{fill:#00a460;}.b{font-size:20px;font-family:Croc-Bold, Croc;font-weight:700;}</style></defs><g transform="translate(-565.915 -148.604)"><g transform="translate(562.415 148.304)"><path class="a" d="M122.664,274.492,3.5,206.234V69.137L121.507.3,240.092,68.559l.578,137.1Zm-107.595-75.2,107.016,61.317,107.016-61.9L228.523,75.5,121.507,14.183,15.069,76.079Z" transform="translate(0 0)"/><rect class="a" width="11.569" height="130.155" transform="matrix(0.502, 0.865, -0.865, 0.502, 231.636, 66.879)"/><rect class="a" width="130.155" height="11.569" transform="translate(127.804 137.075) rotate(89.692)"/><rect class="a" width="130.155" height="11.569" transform="translate(12.112 67.626) rotate(29.847)"/><path class="a" d="M135.278,121.315H123.708V79.665L13.8,16.612,19.585,6.2,135.278,72.723Z" transform="translate(49.282 28.229)"/></g><text class="b" transform="matrix(0.791, 0.457, -0.611, 0.604, 675.484, 178.034)"><tspan x="0" y="0">КРОК</tspan></text></g></svg>