<svg width="729" height="65" viewBox="0 0 729 65" fill="none" xmlns="http://www.w3.org/2000/svg">
<path d="M0 1.25691C0.893805 1.19278 2.05575 1.14148 3.48584 1.07735C4.91593 1.01322 6.49924 0.961917 8.223 0.897789C9.94677 0.833661 11.7344 0.795185 13.5858 0.769534C15.4373 0.743882 17.2249 0.718231 18.9487 0.718231C22.7026 0.718231 25.9076 1.12865 28.5634 1.93666C31.2193 2.74467 33.39 3.84767 35.0882 5.25848C36.7865 6.6693 38.025 8.3238 38.7911 10.2476C39.57 12.1586 39.9531 14.1979 39.9531 16.3526C39.9531 19.6488 39.3402 22.4191 38.1144 24.6636C36.8886 26.9081 35.1138 28.8062 32.7899 30.371V30.5505C33.9263 30.9738 35.0244 31.5894 36.0969 32.3974C37.1695 33.2054 38.1272 34.193 38.9571 35.3601C39.7871 36.5272 40.4638 37.8996 40.9746 39.4899C41.4853 41.0803 41.7407 42.8887 41.7407 44.928C41.7407 48.2241 41.1406 51.0714 39.9531 53.5083C38.7656 55.9323 37.0929 57.9459 34.9478 59.562C32.8026 61.178 30.2872 62.3708 27.3887 63.1531C24.503 63.9355 21.3492 64.3202 17.9527 64.3202C16.4588 64.3202 14.8499 64.3074 13.1262 64.2689C11.4024 64.2433 9.71694 64.2048 8.06978 64.1792C6.4354 64.1535 4.90316 64.1022 3.47307 64.0509C2.05575 63.9611 0.893805 63.8713 0 63.7431V1.25691ZM18.7699 14.1851C17.8761 14.1851 17.11 14.2107 16.4843 14.2749C15.8587 14.339 15.1308 14.4288 14.2881 14.5442V25.9461H19.0253C20.8767 25.9461 22.4345 25.4972 23.7241 24.5994C25.001 23.7017 25.6394 22.1113 25.6394 19.8412C25.6394 17.9301 24.9244 16.5065 23.4943 15.5702C22.077 14.6468 20.4937 14.1851 18.7699 14.1851ZM14.3009 38.5152V50.2762C14.7733 50.3917 15.3607 50.5199 16.0502 50.6354C16.7397 50.7508 17.7612 50.8149 19.1402 50.8149C21.9365 50.8149 24.0306 50.2249 25.3968 49.0578C26.7631 47.8907 27.4526 46.2618 27.4526 44.1584C27.4526 42.1833 26.7631 40.7468 25.3968 39.8491C24.0306 38.9513 22.1791 38.5024 19.8552 38.5024H14.3009V38.5152Z" fill="white"/>
<path d="M64.9796 1.07735H79.2805V50.4558H104.754V63.9227H64.9796V1.07735Z" stroke="white" stroke-width="1.4895" stroke-miterlimit="10"/>
<path d="M141.502 1.07735H154.283L180.293 63.9227H165.009L159.825 50.7251H135.067L129.883 63.9227H115.48L141.502 1.07735ZM140.43 37.2583H154.462L147.491 19.482L140.43 37.2583Z" fill="#FF645A"/>
<path d="M244.737 57.7279C243.779 58.8052 242.591 59.78 241.161 60.6521C239.731 61.5243 238.122 62.281 236.335 62.9351C234.547 63.5892 232.645 64.1022 230.614 64.4613C228.584 64.8204 226.503 65 224.358 65C219.531 65 215.101 64.2176 211.078 62.6657C207.056 61.1139 203.596 58.9079 200.71 56.0734C197.825 53.2261 195.564 49.8145 193.956 45.8386C192.347 41.8627 191.542 37.4122 191.542 32.5C191.542 28.0111 192.245 23.7914 193.649 19.8412C195.054 15.8909 197.122 12.4536 199.868 9.51657C202.613 6.57952 206.022 4.27092 210.108 2.56511C214.194 0.859313 218.918 0 224.281 0C228.457 0 232.21 0.628453 235.543 1.88536C238.876 3.14227 241.506 4.69416 243.409 6.55387L237.063 17.3273C235.339 16.3141 233.513 15.4163 231.61 14.634C229.708 13.8516 227.256 13.4669 224.281 13.4669C221.842 13.4669 219.557 13.8773 217.437 14.6853C215.318 15.4933 213.479 16.7117 211.896 18.3149C210.312 19.9309 209.061 21.9189 208.142 24.2916C207.222 26.6515 206.763 29.3962 206.763 32.5128C206.763 35.3216 207.222 37.8867 208.142 40.1953C209.061 42.5039 210.363 44.5047 212.023 46.2105C213.696 47.9163 215.688 49.2374 218.012 50.1608C220.336 51.0843 222.902 51.5588 225.698 51.5588C227.959 51.5588 230.27 51.1869 232.632 50.4301C234.981 49.6863 237.203 48.532 239.297 46.9801L244.737 57.7279Z" fill="white"/>
<path d="M264.4 1.07735H278.701V28.4599L299.169 1.07735H316.33L292.823 30.076L318.207 63.9227H300.063L278.701 34.0262V63.9227H264.4V1.07735V1.07735Z" stroke="white" stroke-width="1.4895" stroke-miterlimit="10"/>
<path d="M363.804 1.07735H400.003V14.5442H378.105V27.8315H397.322V41.2983H378.105V63.9227H363.804V1.07735V1.07735Z" stroke="white" stroke-width="1.4895" stroke-miterlimit="10"/>
<path d="M435.755 47.942V63.9227H421.455V1.07736C422.348 1.07736 423.804 1.06453 425.834 1.02605C427.864 1.0004 429.997 0.974751 432.231 0.974751C434.466 0.974751 436.534 0.961926 438.45 0.923449C440.352 0.897798 441.603 0.872147 442.204 0.872147C446.673 0.872147 450.503 1.5006 453.695 2.75751C456.888 4.01441 459.492 5.69456 461.523 7.78513C463.553 9.8757 465.034 12.3382 465.992 15.147C466.949 17.9558 467.422 20.8929 467.422 23.9454C467.422 26.8183 467.064 29.3449 466.349 31.5381C465.634 33.7184 464.727 35.591 463.629 37.1557C462.531 38.7076 461.331 40.0158 460.054 41.0547C458.777 42.1064 457.564 42.9913 456.441 43.7096L471.993 63.9098H454.385L443.123 47.9292H435.755V47.942ZM440.939 34.4751C442.548 34.4751 444.042 34.3084 445.409 33.9878C446.775 33.6543 447.975 33.09 448.984 32.282C449.992 31.474 450.784 30.4223 451.346 29.1397C451.908 27.8571 452.201 26.2155 452.201 24.2403C452.201 22.9834 452.074 21.7778 451.806 20.6107C451.537 19.4436 451.039 18.3919 450.324 17.4684C449.609 16.545 448.639 15.7883 447.426 15.224C446.2 14.6596 444.668 14.3646 442.816 14.3646C442.101 14.3646 441.463 14.3646 440.901 14.3646C440.339 14.3646 439.803 14.3646 439.292 14.3646C438.782 14.3646 438.271 14.3775 437.722 14.416C437.186 14.4416 436.534 14.4929 435.755 14.557V34.488H440.939V34.4751Z" fill="white"/>
<path d="M492.333 1.07735H506.634V63.9227H492.333V1.07735Z" stroke="white" stroke-width="1.4895" stroke-miterlimit="10"/>
<path d="M533.448 1.07734H534.7C535.53 1.07734 536.768 1.06452 538.415 1.02604C540.05 1.00039 541.799 0.961914 543.65 0.936263C545.502 0.910611 547.302 0.872135 549.064 0.846484C550.826 0.820832 552.205 0.795181 553.227 0.795181C559.484 0.795181 564.834 1.62884 569.277 3.30899C573.721 4.98914 577.347 7.24644 580.182 10.0937C583.016 12.941 585.085 16.25 586.4 20.0207C587.715 23.7914 588.366 27.7674 588.366 31.9613C588.366 36.3861 587.626 40.5545 586.132 44.4406C584.638 48.3396 582.39 51.7255 579.377 54.6369C576.364 57.5355 572.622 59.8441 568.153 61.5499C563.684 63.2557 558.475 64.115 552.512 64.115C551.682 64.115 550.571 64.1022 549.205 64.0766C547.839 64.0509 546.345 64.0253 544.736 64.0253C543.127 64.0253 541.467 64.0124 539.769 63.974C538.071 63.9483 536.474 63.9227 534.98 63.9227H533.461V1.07734H533.448ZM553.023 14.2749C552.244 14.2749 551.401 14.2877 550.469 14.3262C549.549 14.3518 548.63 14.4288 547.736 14.557V50.4686C548.694 50.5841 549.537 50.6482 550.29 50.6482C551.031 50.6482 551.912 50.6482 552.933 50.6482C559.126 50.6482 564.042 49.0322 567.681 45.8001C571.32 42.5681 573.133 37.9637 573.133 31.9741C573.133 29.1012 572.622 26.5618 571.614 24.3429C570.605 22.1241 569.2 20.2772 567.413 18.7766C565.625 17.276 563.506 16.1602 561.067 15.4163C558.628 14.6468 555.947 14.2749 553.023 14.2749Z" fill="white"/>
<path d="M625.612 1.07735H638.394L664.404 63.9227H649.119L643.935 50.7251H619.177L613.993 63.9227H599.603L625.612 1.07735ZM624.54 37.2583H638.572L631.601 19.482L624.54 37.2583Z" fill="#FF645A"/>
<path d="M705.161 38.3356V63.9227H690.86V38.3356L668.872 1.07735H685.229L698.636 24.8688L711.865 1.07735H727.327L705.161 38.3356Z" stroke="white" stroke-width="1.4895" stroke-miterlimit="10"/>
</svg>
