<svg width="815" height="443" viewBox="0 0 815 443" fill="none" xmlns="http://www.w3.org/2000/svg">
<path d="M378.277 140.514L439.678 165.126L520.173 140L544.78 178.063L633.385 171.91L615.567 214.702L692 228.931L635.834 266.642L682.571 297.994L600.932 321.989L607.267 363.283L518.853 368.07L483.35 409.833L408.413 394.312L339.195 427L294.893 394.723L207.813 410.832L204.323 369.201L119.326 365.03L157.425 323.59L94 300.109L164.977 268.331L137.628 230.928L225.206 216.097L240.222 173.32L324.354 178.856L378.277 140.514Z" fill="#00A360"/>
<g clip-path="url(#clip0)">
<path d="M639.8 409.17L642.41 397L645.01 409.17L652.82 411.78L645.01 414.38L642.41 426.55L639.8 414.38L632 411.78L639.8 409.17Z" fill="white"/>
</g>
<g clip-path="url(#clip1)">
<path d="M778.61 157.15L785.38 125.48L792.16 157.15L812.47 163.92L792.16 170.7L785.38 202.37L778.61 170.7L758.3 163.92L778.61 157.15Z" stroke="white" stroke-width="1.4544" stroke-miterlimit="10"/>
</g>
<g clip-path="url(#clip2)">
<path d="M10.1 294.65L12.71 282.48L15.31 294.65L23.12 297.25L15.31 299.86L12.71 312.03L10.1 299.86L2.3 297.25L10.1 294.65Z" stroke="white" stroke-width="1.4544" stroke-miterlimit="10"/>
</g>
<g clip-path="url(#clip3)">
<path d="M45.61 77.2201L52.38 45.55L59.16 77.2201L79.47 83.99L59.16 90.77L52.38 122.44L45.61 90.77L25.3 83.99L45.61 77.2201Z" stroke="white" stroke-width="1.4544" stroke-miterlimit="10"/>
<path d="M117.47 31.19L122.01 10L126.54 31.19L140.13 35.72L126.54 40.25L122.01 61.44L117.47 40.25L103.89 35.72L117.47 31.19Z" fill="white"/>
</g>
<g clip-path="url(#clip4)">
<path d="M626.82 96.97L628.76 87.9L630.7 96.97L636.52 98.91L630.7 100.85L628.76 109.92L626.82 100.85L621 98.91L626.82 96.97Z" fill="white"/>
</g>
<path d="M597.82 33.07L599.76 24L601.7 33.07L607.52 35.01L601.7 36.95L599.76 46.02L597.82 36.95L592 35.01L597.82 33.07Z" fill="white"/>
<path d="M723.16 34.85L726.55 19L729.95 34.85L740.11 38.24L729.95 41.63L726.55 57.49L723.16 41.63L713 38.24L723.16 34.85Z" stroke="white" stroke-width="1.4544" stroke-miterlimit="10"/>
<g clip-path="url(#clip5)">
<path d="M119.9 415.56L123.87 397L127.84 415.56L139.74 419.53L127.84 423.5L123.87 442.05L119.9 423.5L108 419.53L119.9 415.56Z" fill="white"/>
<path d="M172.68 419.86L173.97 413.79L175.27 419.86L179.16 421.16L175.27 422.46L173.97 428.52L172.68 422.46L168.78 421.16L172.68 419.86Z" fill="white"/>
</g>
<g clip-path="url(#clip6)">
<path d="M251.362 129.783L256.162 259.888L382.78 337L388.517 205.396L251.362 129.783Z" fill="#333334"/>
<path d="M528.043 132.779L381.58 201.46L382.78 337L525.057 259.888L528.043 132.779Z" fill="#222223"/>
<path d="M251.362 129.783L381.58 201.46L528.043 132.779L389.395 77.9636L251.362 129.783Z" fill="#0F0F0F"/>
<path d="M251.567 130.223L250.016 129.489L211.469 54.5509L212.405 53.1115L352.897 5.87512L389.19 77.141L251.567 130.223Z" fill="#333334"/>
<path d="M212.405 53.1115L251.567 130.223L389.395 77.9635L352.897 3.17249L212.405 53.1115Z" fill="#4F4F51"/>
<path d="M381.2 203.927L381.229 201.842L337.296 135.863L200.229 71.4714L199 72.7052L251.099 130.429L381.2 203.927Z" fill="#383839"/>
<path d="M380 203.31L336.067 137.332L199 72.9402L249.899 131.898L380 203.31Z" fill="#282829"/>
<path d="M389.395 77.9636V199.022L527.545 133.895L389.395 77.9636Z" fill="#383839"/>
<path d="M554.853 41.3612L527.545 133.895L389.863 78.5217L412.664 0L554.853 41.3612Z" fill="#4F4F51"/>
<path d="M426.069 128.52L381.434 202.194L383.541 203.428L529.506 133.161L573 72.7348L571.946 71.0016L426.069 128.52Z" fill="#222223"/>
<path d="M427.533 129.988L383.424 203.487L528.043 135.863L573 72.7346L427.533 129.988Z" fill="#383839"/>
</g>
<defs>
<clipPath id="clip0">
<rect width="20.82" height="29.55" fill="white" transform="translate(632 397)"/>
</clipPath>
<clipPath id="clip1">
<rect width="58.76" height="83.84" fill="white" transform="translate(756 122)"/>
</clipPath>
<clipPath id="clip2">
<rect width="25.41" height="36.5" fill="white" transform="translate(0 279)"/>
</clipPath>
<clipPath id="clip3">
<rect width="117.13" height="115.92" fill="white" transform="translate(23 10)"/>
</clipPath>
<clipPath id="clip4">
<rect width="71.29" height="52.92" fill="white" transform="translate(621 57)"/>
</clipPath>
<clipPath id="clip5">
<rect width="71.16" height="45.05" fill="white" transform="translate(108 397)"/>
</clipPath>
<clipPath id="clip6">
<rect width="374" height="337" fill="white" transform="translate(199)"/>
</clipPath>
</defs>
</svg>
