<svg width="815" height="433" viewBox="0 0 815 433" fill="none" xmlns="http://www.w3.org/2000/svg">
<g clip-path="url(#clip0)">
<path d="M778.61 147.15L785.38 115.48L792.16 147.15L812.47 153.92L792.16 160.7L785.38 192.37L778.61 160.7L758.3 153.92L778.61 147.15Z" stroke="white" stroke-width="1.4544" stroke-miterlimit="10"/>
</g>
<g clip-path="url(#clip1)">
<path d="M10.1 284.65L12.71 272.48L15.31 284.65L23.12 287.25L15.31 289.86L12.71 302.03L10.1 289.86L2.3 287.25L10.1 284.65Z" stroke="white" stroke-width="1.4544" stroke-miterlimit="10"/>
</g>
<g clip-path="url(#clip2)">
<path d="M45.61 67.22L52.38 35.55L59.16 67.22L79.47 73.99L59.16 80.77L52.38 112.44L45.61 80.77L25.3 73.99L45.61 67.22Z" stroke="white" stroke-width="1.4544" stroke-miterlimit="10"/>
<path d="M117.47 21.19L122.01 0L126.54 21.19L140.13 25.72L126.54 30.25L122.01 51.44L117.47 30.25L103.89 25.72L117.47 21.19Z" fill="white"/>
</g>
<g clip-path="url(#clip3)">
<path d="M626.82 86.97L628.76 77.9L630.7 86.97L636.52 88.91L630.7 90.85L628.76 99.92L626.82 90.85L621 88.91L626.82 86.97Z" fill="white"/>
</g>
<path d="M597.82 23.07L599.76 14L601.7 23.07L607.52 25.01L601.7 26.95L599.76 36.02L597.82 26.95L592 25.01L597.82 23.07Z" fill="white"/>
<path d="M723.16 24.85L726.55 9L729.95 24.85L740.11 28.24L729.95 31.63L726.55 47.49L723.16 31.63L713 28.24L723.16 24.85Z" stroke="white" stroke-width="1.4544" stroke-miterlimit="10"/>
<g clip-path="url(#clip4)">
<path d="M119.9 405.56L123.87 387L127.84 405.56L139.74 409.53L127.84 413.5L123.87 432.05L119.9 413.5L108 409.53L119.9 405.56Z" fill="white"/>
<path d="M172.68 409.86L173.97 403.79L175.27 409.86L179.16 411.16L175.27 412.46L173.97 418.52L172.68 412.46L168.78 411.16L172.68 409.86Z" fill="white"/>
</g>
<path d="M378.277 130.514L439.678 155.126L520.173 130L544.78 168.063L633.385 161.91L615.567 204.702L692 218.931L635.834 256.642L682.571 287.994L600.932 311.989L607.267 353.283L518.853 358.07L483.35 399.833L408.413 384.312L339.195 417L294.893 384.723L207.813 400.832L204.323 359.201L119.326 355.03L157.425 313.59L94 290.109L164.977 258.331L137.628 220.928L225.206 206.097L240.222 163.32L324.354 168.856L378.277 130.514Z" fill="#00A360"/>
<g clip-path="url(#clip5)">
<path d="M639.8 399.17L642.41 387L645.01 399.17L652.82 401.78L645.01 404.38L642.41 416.55L639.8 404.38L632 401.78L639.8 399.17Z" fill="white"/>
</g>
<g clip-path="url(#clip6)">
<path d="M250.237 117.069L382.637 189.358L530.763 120.12L390.203 64.8588L250.237 117.069Z" fill="#87613D"/>
<path d="M382.637 189.714L464.237 150.356L328.722 88.4024L250 117.721L382.637 189.714Z" fill="url(#paint0_linear)"/>
<path d="M464.237 150.356L530.911 119.468L390.678 65.3919L332.431 87.4251L464.237 150.356Z" fill="#AF896D"/>
<path d="M250.03 116.24L250.237 117.898L314.123 152.725L455.068 91.0085V88.9354L390.203 64.8588L250.03 116.24Z" fill="#434345"/>
<path d="M250.03 116.24L314.123 150.86L455.068 88.9355L389.996 64L250.03 116.24Z" fill="#4F4F51"/>
<path d="M314.123 150.86L313.915 152.518L382.637 189.358L530.763 120.12L531 118.787L455.75 89.2316L314.123 150.86Z" fill="#434345"/>
<path d="M314.449 151.126L382.637 186.96L531 118.787L455.335 89.0243L314.449 151.126Z" fill="#4F4F51"/>
<path d="M250.237 117.069L255.104 248.262L383.497 326L391.301 193.801L250.237 117.069Z" fill="#333334"/>
<path d="M321.57 201.382L320.087 201.56L318.722 199.487L317.416 199.812L315.873 197.621L314.568 197.917L313.262 195.903L312.045 196.259L310.74 194.245L309.256 194.423L308.129 192.498L306.764 192.794L305.696 190.898L304.509 191.283L303.44 189.418L302.164 189.743L300.918 187.759L299.88 188.263L298.782 186.338L297.803 186.871V144.196L298.544 142.715L441.478 83.9898L466.699 93.6146L324.271 156.042L323.291 157.523V203.662L321.57 201.382Z" fill="#E5E5E5"/>
<path d="M530.911 119.468L382.637 189.358L383.497 326L527.706 248.262L530.911 119.468Z" fill="#222223"/>
<path d="M297.803 144.196V186.871L298.782 186.338L299.88 188.263L300.918 187.759L302.164 189.743L303.44 189.418L304.509 191.283L305.696 190.898L306.764 192.794L308.129 192.498L309.256 194.423L310.74 194.245L312.045 196.259L313.262 195.903L314.568 197.917L315.873 197.621L317.416 199.812L318.722 199.487L320.087 201.56L321.57 201.382L323.291 203.662V157.523L323.647 156.96L298.337 143.13L297.803 144.196Z" fill="#E5E5E5"/>
<path d="M323.647 289.811V243.583L322.698 244.116L321.57 242.22L320.532 242.694L319.315 240.71L318.039 241.036L316.971 239.17L315.784 239.555L314.716 237.689L313.351 237.956L312.194 236.031L310.74 236.238L309.434 234.195L308.188 234.55L306.912 232.536L305.577 232.833L304.034 230.671L302.728 230.967L301.363 228.894L299.88 229.072L298.188 226.791V274.323L323.647 289.811Z" fill="#E5E5E5"/>
<path d="M310.918 149.616L455.068 88.9355L455.75 89.2316L311.66 150.119L310.918 149.616Z" fill="#E5E5E5"/>
</g>
<defs>
<linearGradient id="paint0_linear" x1="250" y1="139.066" x2="464.227" y2="139.066" gradientUnits="userSpaceOnUse">
<stop stop-color="#CEAA82"/>
<stop offset="1" stop-color="#9E815B"/>
</linearGradient>
<clipPath id="clip0">
<rect width="58.76" height="83.84" fill="white" transform="translate(756 112)"/>
</clipPath>
<clipPath id="clip1">
<rect width="25.41" height="36.5" fill="white" transform="translate(0 269)"/>
</clipPath>
<clipPath id="clip2">
<rect width="117.13" height="115.92" fill="white" transform="translate(23)"/>
</clipPath>
<clipPath id="clip3">
<rect width="71.29" height="52.92" fill="white" transform="translate(621 47)"/>
</clipPath>
<clipPath id="clip4">
<rect width="71.16" height="45.05" fill="white" transform="translate(108 387)"/>
</clipPath>
<clipPath id="clip5">
<rect width="20.82" height="29.55" fill="white" transform="translate(632 387)"/>
</clipPath>
<clipPath id="clip6">
<rect width="281" height="262" fill="white" transform="translate(250 64)"/>
</clipPath>
</defs>
</svg>
