<svg width="117" height="30" viewBox="0 0 117 30" fill="none" xmlns="http://www.w3.org/2000/svg">
<path fill-rule="evenodd" clip-rule="evenodd" d="M28.9232 0.565188H40.7178C48.9741 0.565188 53.5002 4.96065 53.5002 11.2928C53.5002 17.6229 48.7791 22.1324 40.3865 22.1324H35.6856V29.5829H28.9243V0.565188H28.9232ZM55.9779 15C55.9779 6.02801 63.1877 0 71.3359 0C79.4851 0 86.7071 5.77492 86.7071 15C86.7071 24.2241 79.6649 30 71.3359 30C63.0049 30 55.9779 23.971 55.9779 15ZM71.3359 23.7949C66.1674 23.7949 62.9039 19.8026 62.9039 15C62.9039 10.1974 66.1371 6.20507 71.3359 6.20507C76.5347 6.20507 79.7659 10.1454 79.7659 15C79.7659 19.8546 76.5034 23.7949 71.3359 23.7949ZM98.0411 13.3024L108.623 0.565188H116.562L104.692 14.3208L117 29.5819H108.409L98.0411 16.3575V29.5829H91.2797V0.565188H98.0411V13.3024ZM6.76138 13.3024L17.3459 0.565188H25.286L13.4137 14.3218L25.7213 29.5829H17.1317L6.76138 16.3575V29.5829H0V0.565188H6.76138V13.3024ZM35.6846 6.44115V16.3755H39.7259C44.5873 16.3755 46.56 14.4258 46.56 11.3078C46.56 8.82394 44.956 6.44115 40.1138 6.44115H35.6846Z" fill="white"/>
</svg>
